<svg width="50" height="50" viewBox="0 0 50 50" fill="none" xmlns="http://www.w3.org/2000/svg">
<path fill-rule="evenodd" clip-rule="evenodd" d="M35.4166 43.7499H14.5833C12.2812 43.7499 10.4166 41.8853 10.4166 39.5833V18.7499C10.4166 16.4478 12.2812 14.5833 14.5833 14.5833H35.4166C37.7187 14.5833 39.5833 16.4478 39.5833 18.7499V39.5833C39.5833 41.8853 37.7187 43.7499 35.4166 43.7499Z" stroke="#2853C9" stroke-width="3.125" stroke-linecap="round" stroke-linejoin="round"/>
<path d="M20.8334 20.8334H29.1667" stroke="#2853C9" stroke-width="3.125" stroke-linecap="round" stroke-linejoin="round"/>
<path d="M16.6667 43.75V45.8333" stroke="#2853C9" stroke-width="3.125" stroke-linecap="round" stroke-linejoin="round"/>
<path d="M33.3333 43.75V45.8333" stroke="#2853C9" stroke-width="3.125" stroke-linecap="round" stroke-linejoin="round"/>
<path d="M33.3333 14.5834V8.33342C33.3333 6.03133 31.4687 4.16675 29.1666 4.16675H20.8333C18.5312 4.16675 16.6666 6.03133 16.6666 8.33342V14.5834" stroke="#2853C9" stroke-width="3.125" stroke-linecap="round" stroke-linejoin="round"/>
<path d="M25 27.0833V37.4999" stroke="#2853C9" stroke-width="3.125" stroke-linecap="round" stroke-linejoin="round"/>
<path d="M16.6667 27.0833V37.4999" stroke="#2853C9" stroke-width="3.125" stroke-linecap="round" stroke-linejoin="round"/>
<path d="M33.3333 27.0833V37.4999" stroke="#2853C9" stroke-width="3.125" stroke-linecap="round" stroke-linejoin="round"/>
</svg>
