<svg width="52" height="52" viewBox="0 0 52 52" fill="none" xmlns="http://www.w3.org/2000/svg">
<path d="M34.3369 39.5477H18.0176" stroke="#2853C9" stroke-width="3.125" stroke-linecap="round" stroke-linejoin="round"/>
<path d="M40.5809 39.5474H44.7576C45.9087 39.5474 46.8419 38.6143 46.8419 37.4632V24.7191C46.8419 24.1891 46.7407 23.6639 46.5438 23.1718L43.7203 16.1148C43.0872 14.5324 41.5545 13.4949 39.8502 13.4949H32.2524" stroke="#2853C9" stroke-width="3.125" stroke-linecap="round" stroke-linejoin="round"/>
<path d="M46.8417 28.0844H39.547C38.9714 28.0844 38.5049 27.6178 38.5049 27.0423V19.7476H45.1743" stroke="#2853C9" stroke-width="3.125" stroke-linecap="round" stroke-linejoin="round"/>
<path d="M39.6653 37.3456C40.5594 38.2396 40.827 39.5843 40.3432 40.7525C39.8593 41.9208 38.7194 42.6825 37.4549 42.6826C36.1905 42.6827 35.0505 41.921 34.5665 40.7528C34.0825 39.5847 34.3499 38.24 35.244 37.3458L35.2442 37.3456C35.8305 36.7593 36.6257 36.4299 37.4548 36.4299C38.2839 36.4299 39.079 36.7593 39.6653 37.3456V37.3456" stroke="#2853C9" stroke-width="3.125" stroke-linecap="round" stroke-linejoin="round"/>
<path d="M16.739 37.3453C17.6332 38.2394 17.9007 39.584 17.4169 40.7523C16.9331 41.9205 15.7931 42.6823 14.5287 42.6823C13.2642 42.6824 12.1242 41.9208 11.6402 40.7526C11.1563 39.5844 11.4237 38.2397 12.3177 37.3455L12.3184 37.3449C12.9046 36.7587 13.6997 36.4294 14.5288 36.4294C15.3578 36.4295 16.1528 36.759 16.739 37.3453V37.3453" stroke="#2853C9" stroke-width="3.125" stroke-linecap="round" stroke-linejoin="round"/>
<path d="M11.4106 39.5476H7.24216C6.09109 39.5476 5.15796 38.6145 5.15796 37.4634V11.4109C5.15796 10.2598 6.09109 9.32666 7.24216 9.32666H30.1684C31.3194 9.32666 32.2526 10.2598 32.2526 11.4109V30.1687" stroke="#2853C9" stroke-width="3.125" stroke-linecap="round" stroke-linejoin="round"/>
<path d="M32.2526 30.1686H5.15796" stroke="#2853C9" stroke-width="3.125" stroke-linecap="round" stroke-linejoin="round"/>
</svg>
