<svg width="213" height="45" viewBox="0 0 213 45" fill="none" xmlns="http://www.w3.org/2000/svg">
<path fill-rule="evenodd" clip-rule="evenodd" d="M24.4165 19.7894H25.0572H25.2998L25.3877 20.0167L28.7025 28.6119H32.099V4.3913H25.4325V16.8323V17.1871H25.0773H24.3961H24.0409V16.8323V4.3913H1.3913V20.7364H4.81351V7.1738V6.8183H5.1687H5.349H5.5293L5.6362 6.9668L12.0609 15.9048L18.4669 6.9668L18.5732 6.8183H18.7558H18.9159H19.2708V7.1738V23.7088V24.0637H18.9159H18.2146H17.8594V23.7088V10.2627L12.4311 17.8414L12.3245 17.9896H12.1425H11.9821H11.8018L11.6949 17.8414L6.2252 10.255V20.7364H10.1784C11.5759 20.7364 12.8279 21.2132 13.7226 22.0494C14.5919 22.8618 15.1223 24.0076 15.1223 25.3798C15.1223 26.4426 14.8116 27.3729 14.2682 28.1161C13.7869 28.7735 13.1253 29.2812 12.3361 29.6006L15.3562 34.9462L15.6544 35.4743H15.048H14.2464H14.0412L13.9386 35.2923L10.9296 29.9691C10.8511 29.9791 10.7708 29.9878 10.6901 29.9955C10.5146 30.0122 10.3417 30.0236 10.1784 30.0236H6.2045V35.1191V35.4743H5.84961H5.16841H4.81331V35.1191V28.9671V28.6119H5.16841H10.1784C11.1813 28.6119 12.0827 28.2848 12.7171 27.6938C13.3078 27.1433 13.671 26.3544 13.671 25.3798C13.671 24.3897 13.3178 23.5974 12.7293 23.0492C12.1045 22.4664 11.2068 22.1475 10.1784 22.1475H5.87001H5.16841H1.3913V38.6117H16.9127L18.6755 34.0448L24.086 20.0167L24.1736 19.7894H24.4165ZM21.7358 30.0029L20.077 34.2999L18.4139 38.6117H32.099V30.0029H31.4079H28.7232H27.9803H24.3939H21.7358ZM33.4902 28.9671V29.6483V38.9666V39.6477V40.0032H33.1351H32.4542H1.03641H0.355209H0V39.6477V38.9666V4.0358V3.35489V3H0.355209H1.03641H32.4542H33.1351H33.4902V3.35489V4.0358V28.9671ZM24.7366 22.2294L22.2727 28.6119H27.2007L24.7366 22.2294Z" fill="#2853C9"/>
<path fill-rule="evenodd" clip-rule="evenodd" d="M122.211 12.4686H123.063V30.5344H122.211V12.4686Z" fill="#2853C9"/>
<path d="M70.3211 29.9624L70.297 13.041H69.4509L61.7132 26.4149L53.9754 13.041H53.1055V29.9624H54.0973V15.0162L61.4614 27.6834H61.9402L69.3032 14.9677L69.3281 29.9624H70.3211ZM76.5338 29.9624H77.5503V13.041H76.5338V29.9624ZM96.7522 29.9624L92.5002 24.01L92.6564 23.9632C93.9159 23.5879 94.9057 22.9336 95.5767 22.0373C96.238 21.1543 96.5923 20.0327 96.5923 18.7078C96.5923 16.933 95.9591 15.5185 94.8006 14.5488C93.633 13.5719 91.9291 13.041 89.798 13.041H83.7633V29.9624H84.7798V24.3504H89.798C90.0899 24.3504 90.3689 24.3382 90.641 24.317C90.9171 24.2957 91.1841 24.2654 91.4489 24.2294L91.5183 24.2197L95.6167 29.9624H96.7522ZM84.7798 23.3642V13.9351H89.798C91.653 13.9351 93.0813 14.362 94.0522 15.1639C95.0407 15.9805 95.5512 17.1802 95.5512 18.7078C95.5512 20.2263 95.0387 21.4279 94.046 22.2477C93.0757 23.0493 91.6493 23.4807 89.798 23.4807H84.7798V23.3642ZM114.183 29.9624H115.275L107.491 13.041H106.39L98.6061 29.9624H99.6971L101.878 25.1345H111.978L114.183 29.9624ZM102.337 24.1494L106.928 14.0153C108.491 17.4483 110.053 20.8816 111.618 24.3141H102.263L102.337 24.1494Z" fill="#2853C9"/>
<path d="M131.708 28V18.2H132.422V27.356H138.064V28H131.708ZM143.864 28.07C143.136 28.07 142.459 27.9487 141.834 27.706C141.218 27.454 140.677 27.104 140.21 26.656C139.753 26.1987 139.398 25.6713 139.146 25.074C138.894 24.4673 138.768 23.8093 138.768 23.1C138.768 22.3907 138.894 21.7373 139.146 21.14C139.398 20.5333 139.753 20.006 140.21 19.558C140.677 19.1007 141.218 18.7507 141.834 18.508C142.459 18.256 143.136 18.13 143.864 18.13C144.592 18.13 145.264 18.256 145.88 18.508C146.505 18.7507 147.047 19.096 147.504 19.544C147.961 19.992 148.316 20.5193 148.568 21.126C148.829 21.7233 148.96 22.3813 148.96 23.1C148.96 23.8187 148.829 24.4813 148.568 25.088C148.316 25.6853 147.961 26.208 147.504 26.656C147.047 27.104 146.505 27.454 145.88 27.706C145.264 27.9487 144.592 28.07 143.864 28.07ZM143.864 27.412C144.489 27.412 145.068 27.3047 145.6 27.09C146.132 26.8753 146.594 26.572 146.986 26.18C147.378 25.788 147.681 25.3307 147.896 24.808C148.12 24.2853 148.232 23.716 148.232 23.1C148.232 22.4747 148.12 21.9053 147.896 21.392C147.681 20.8693 147.378 20.412 146.986 20.02C146.594 19.628 146.132 19.3247 145.6 19.11C145.068 18.8953 144.489 18.788 143.864 18.788C143.239 18.788 142.66 18.8953 142.128 19.11C141.596 19.3247 141.129 19.628 140.728 20.02C140.336 20.412 140.028 20.8693 139.804 21.392C139.589 21.9053 139.482 22.4747 139.482 23.1C139.482 23.716 139.589 24.2853 139.804 24.808C140.028 25.3307 140.336 25.788 140.728 26.18C141.129 26.572 141.596 26.8753 142.128 27.09C142.66 27.3047 143.239 27.412 143.864 27.412ZM155.623 28.07C154.885 28.07 154.204 27.9487 153.579 27.706C152.953 27.454 152.407 27.104 151.941 26.656C151.483 26.208 151.129 25.6853 150.877 25.088C150.625 24.4813 150.499 23.8187 150.499 23.1C150.499 22.3813 150.625 21.7233 150.877 21.126C151.129 20.5193 151.488 19.992 151.955 19.544C152.421 19.096 152.963 18.7507 153.579 18.508C154.204 18.256 154.89 18.13 155.637 18.13C156.346 18.13 157.004 18.242 157.611 18.466C158.217 18.69 158.735 19.026 159.165 19.474L158.717 19.95C158.287 19.53 157.816 19.2313 157.303 19.054C156.799 18.8767 156.248 18.788 155.651 18.788C155.016 18.788 154.428 18.8953 153.887 19.11C153.345 19.3247 152.874 19.628 152.473 20.02C152.071 20.412 151.759 20.8693 151.535 21.392C151.32 21.9147 151.213 22.484 151.213 23.1C151.213 23.716 151.32 24.2853 151.535 24.808C151.759 25.3307 152.071 25.788 152.473 26.18C152.874 26.572 153.345 26.8753 153.887 27.09C154.428 27.3047 155.016 27.412 155.651 27.412C156.229 27.412 156.775 27.3233 157.289 27.146C157.811 26.9687 158.287 26.6747 158.717 26.264L159.123 26.81C158.684 27.23 158.157 27.5473 157.541 27.762C156.934 27.9673 156.295 28.07 155.623 28.07ZM158.437 26.74V23.142H159.123V26.81L158.437 26.74ZM162.265 28V18.2H162.979V28H162.265ZM168.97 28.07C168.242 28.07 167.551 27.9487 166.898 27.706C166.254 27.454 165.754 27.132 165.4 26.74L165.722 26.208C166.058 26.5533 166.515 26.8473 167.094 27.09C167.682 27.3233 168.302 27.44 168.956 27.44C169.609 27.44 170.141 27.356 170.552 27.188C170.972 27.0107 171.28 26.7773 171.476 26.488C171.681 26.1987 171.784 25.8767 171.784 25.522C171.784 25.102 171.672 24.766 171.448 24.514C171.224 24.262 170.93 24.0613 170.566 23.912C170.202 23.7627 169.805 23.6367 169.376 23.534C168.946 23.4313 168.512 23.324 168.074 23.212C167.635 23.0907 167.234 22.9367 166.87 22.75C166.506 22.5633 166.212 22.3113 165.988 21.994C165.773 21.6673 165.666 21.2473 165.666 20.734C165.666 20.2673 165.787 19.838 166.03 19.446C166.272 19.054 166.65 18.7367 167.164 18.494C167.677 18.2513 168.335 18.13 169.138 18.13C169.679 18.13 170.211 18.2093 170.734 18.368C171.266 18.5267 171.718 18.7413 172.092 19.012L171.826 19.586C171.415 19.306 170.972 19.1007 170.496 18.97C170.029 18.83 169.576 18.76 169.138 18.76C168.512 18.76 167.994 18.8487 167.584 19.026C167.173 19.2033 166.87 19.4413 166.674 19.74C166.478 20.0293 166.38 20.356 166.38 20.72C166.38 21.14 166.487 21.476 166.702 21.728C166.926 21.98 167.22 22.1807 167.584 22.33C167.948 22.4793 168.349 22.6053 168.788 22.708C169.226 22.8107 169.66 22.9227 170.09 23.044C170.519 23.156 170.916 23.3053 171.28 23.492C171.644 23.6787 171.938 23.9307 172.162 24.248C172.386 24.5653 172.498 24.976 172.498 25.48C172.498 25.9373 172.372 26.3667 172.12 26.768C171.868 27.16 171.48 27.4773 170.958 27.72C170.444 27.9533 169.782 28.07 168.97 28.07ZM176.664 28V18.844H173.136V18.2H180.906V18.844H177.378V28H176.664ZM182.677 28V18.2H183.391V28H182.677ZM190.95 28.07C190.222 28.07 189.545 27.9487 188.92 27.706C188.304 27.454 187.767 27.104 187.31 26.656C186.852 26.208 186.498 25.6853 186.246 25.088C185.994 24.4813 185.868 23.8187 185.868 23.1C185.868 22.3813 185.994 21.7233 186.246 21.126C186.498 20.5193 186.852 19.992 187.31 19.544C187.776 19.096 188.318 18.7507 188.934 18.508C189.55 18.256 190.222 18.13 190.95 18.13C191.64 18.13 192.284 18.242 192.882 18.466C193.488 18.69 194.006 19.0307 194.436 19.488L193.988 19.95C193.568 19.5393 193.101 19.2453 192.588 19.068C192.084 18.8813 191.547 18.788 190.978 18.788C190.352 18.788 189.769 18.8953 189.228 19.11C188.696 19.3247 188.229 19.628 187.828 20.02C187.436 20.412 187.128 20.8693 186.904 21.392C186.689 21.9147 186.582 22.484 186.582 23.1C186.582 23.716 186.689 24.2853 186.904 24.808C187.128 25.3307 187.436 25.788 187.828 26.18C188.229 26.572 188.696 26.8753 189.228 27.09C189.769 27.3047 190.352 27.412 190.978 27.412C191.547 27.412 192.084 27.3233 192.588 27.146C193.101 26.9593 193.568 26.656 193.988 26.236L194.436 26.698C194.006 27.1553 193.488 27.5007 192.882 27.734C192.284 27.958 191.64 28.07 190.95 28.07ZM199.362 28.07C198.634 28.07 197.943 27.9487 197.29 27.706C196.646 27.454 196.147 27.132 195.792 26.74L196.114 26.208C196.45 26.5533 196.907 26.8473 197.486 27.09C198.074 27.3233 198.695 27.44 199.348 27.44C200.001 27.44 200.533 27.356 200.944 27.188C201.364 27.0107 201.672 26.7773 201.868 26.488C202.073 26.1987 202.176 25.8767 202.176 25.522C202.176 25.102 202.064 24.766 201.84 24.514C201.616 24.262 201.322 24.0613 200.958 23.912C200.594 23.7627 200.197 23.6367 199.768 23.534C199.339 23.4313 198.905 23.324 198.466 23.212C198.027 23.0907 197.626 22.9367 197.262 22.75C196.898 22.5633 196.604 22.3113 196.38 21.994C196.165 21.6673 196.058 21.2473 196.058 20.734C196.058 20.2673 196.179 19.838 196.422 19.446C196.665 19.054 197.043 18.7367 197.556 18.494C198.069 18.2513 198.727 18.13 199.53 18.13C200.071 18.13 200.603 18.2093 201.126 18.368C201.658 18.5267 202.111 18.7413 202.484 19.012L202.218 19.586C201.807 19.306 201.364 19.1007 200.888 18.97C200.421 18.83 199.969 18.76 199.53 18.76C198.905 18.76 198.387 18.8487 197.976 19.026C197.565 19.2033 197.262 19.4413 197.066 19.74C196.87 20.0293 196.772 20.356 196.772 20.72C196.772 21.14 196.879 21.476 197.094 21.728C197.318 21.98 197.612 22.1807 197.976 22.33C198.34 22.4793 198.741 22.6053 199.18 22.708C199.619 22.8107 200.053 22.9227 200.482 23.044C200.911 23.156 201.308 23.3053 201.672 23.492C202.036 23.6787 202.33 23.9307 202.554 24.248C202.778 24.5653 202.89 24.976 202.89 25.48C202.89 25.9373 202.764 26.3667 202.512 26.768C202.26 27.16 201.873 27.4773 201.35 27.72C200.837 27.9533 200.174 28.07 199.362 28.07Z" fill="#2853C9"/>
</svg>
