<svg width="50" height="50" viewBox="0 0 50 50" fill="none" xmlns="http://www.w3.org/2000/svg">
<path d="M14.5834 15.1042C13.7205 15.1042 13.0209 15.8037 13.0209 16.6667C13.0209 17.5296 13.7205 18.2292 14.5834 18.2292V15.1042ZM35.4168 18.2292C36.2797 18.2292 36.9793 17.5296 36.9793 16.6667C36.9793 15.8037 36.2797 15.1042 35.4168 15.1042V18.2292ZM14.5834 23.4376C13.7205 23.4376 13.0209 24.1372 13.0209 25.0001C13.0209 25.8631 13.7205 26.5626 14.5834 26.5626V23.4376ZM31.2501 26.5626C32.1131 26.5626 32.8126 25.8631 32.8126 25.0001C32.8126 24.1372 32.1131 23.4376 31.2501 23.4376V26.5626ZM14.5834 31.7707C13.7205 31.7707 13.0209 32.4703 13.0209 33.3332C13.0209 34.1962 13.7205 34.8957 14.5834 34.8957V31.7707ZM18.7501 34.8957C19.6131 34.8957 20.3126 34.1962 20.3126 33.3332C20.3126 32.4703 19.6131 31.7707 18.7501 31.7707V34.8957ZM30.1453 38.605C30.7554 39.2152 31.7448 39.2152 32.355 38.605C32.9652 37.9948 32.9652 37.0054 32.355 36.3953L30.1453 38.605ZM28.1883 32.2286C27.5781 31.6184 26.5888 31.6184 25.9786 32.2286C25.3684 32.8388 25.3684 33.8281 25.9786 34.4383L28.1883 32.2286ZM38.6049 32.3549C39.215 31.7447 39.215 30.7553 38.6049 30.1451C37.9947 29.535 37.0053 29.535 36.3951 30.1451L38.6049 32.3549ZM30.1451 36.3951C29.535 37.0053 29.535 37.9947 30.1451 38.6049C30.7553 39.215 31.7447 39.215 32.3549 38.6049L30.1451 36.3951ZM14.5834 18.2292H35.4168V15.1042H14.5834V18.2292ZM14.5834 26.5626H31.2501V23.4376H14.5834V26.5626ZM14.5834 34.8957H18.7501V31.7707H14.5834V34.8957ZM39.5833 42.1875H10.4167V45.3125H39.5833V42.1875ZM10.4167 42.1875C8.97753 42.1875 7.8125 41.0225 7.8125 39.5833H4.6875C4.6875 42.7484 7.25164 45.3125 10.4167 45.3125V42.1875ZM7.8125 39.5833V10.4167H4.6875V39.5833H7.8125ZM7.8125 10.4167C7.8125 8.97753 8.97753 7.8125 10.4167 7.8125V4.6875C7.25164 4.6875 4.6875 7.25164 4.6875 10.4167H7.8125ZM10.4167 7.8125H39.5833V4.6875H10.4167V7.8125ZM39.5833 7.8125C41.0225 7.8125 42.1875 8.97753 42.1875 10.4167H45.3125C45.3125 7.25164 42.7484 4.6875 39.5833 4.6875V7.8125ZM42.1875 10.4167V39.5833H45.3125V10.4167H42.1875ZM42.1875 39.5833C42.1875 41.0225 41.0225 42.1875 39.5833 42.1875V45.3125C42.7484 45.3125 45.3125 42.7484 45.3125 39.5833H42.1875ZM32.355 36.3953L28.1883 32.2286L25.9786 34.4383L30.1453 38.605L32.355 36.3953ZM36.3951 30.1451L30.1451 36.3951L32.3549 38.6049L38.6049 32.3549L36.3951 30.1451Z" fill="#2853C9"/>
</svg>
