<svg width="42" height="44" viewBox="0 0 42 44" fill="none" xmlns="http://www.w3.org/2000/svg">
<path fill-rule="evenodd" clip-rule="evenodd" d="M32.0982 12.9563C32.0982 6.998 27.1294 2.16675 21.0003 2.16675C14.8711 2.16675 9.90234 6.998 9.90234 12.9563C9.90234 19.2542 16.6232 26.0188 19.6044 28.7105C20.4023 29.4292 21.5982 29.4292 22.3961 28.7105C25.3773 26.0188 32.0982 19.2542 32.0982 12.9563Z" stroke="#2853C9" stroke-width="3.15358" stroke-linecap="round" stroke-linejoin="round"/>
<path d="M23.612 10.6682C25.0545 12.092 25.0545 14.4004 23.612 15.8242C22.1695 17.2479 19.8308 17.2479 18.3883 15.8242C16.9458 14.4004 16.9458 12.092 18.3883 10.6682C19.8308 9.2444 22.1695 9.2444 23.612 10.6682" stroke="#2853C9" stroke-width="3.15358" stroke-linecap="round" stroke-linejoin="round"/>
<path d="M11.7417 19.2021L2.25 23.0001V39.6667L12.6667 35.5001L21 41.7501L29.3333 35.5001L39.75 39.6667V23.0001L30.2583 19.2021" stroke="#2853C9" stroke-width="3.15358" stroke-linecap="round" stroke-linejoin="round"/>
</svg>
