<svg width="52" height="52" viewBox="0 0 52 52" fill="none" xmlns="http://www.w3.org/2000/svg">
<path d="M34.3369 39.5478H18.0176" stroke="#2853C9" stroke-width="3.125" stroke-linecap="round" stroke-linejoin="round"/>
<path d="M40.5809 39.5475H44.7576C45.9087 39.5475 46.8419 38.6144 46.8419 37.4633V24.7192C46.8419 24.1892 46.7407 23.664 46.5438 23.1719L43.7203 16.115C43.0872 14.5326 41.5545 13.495 39.8502 13.495H32.2524" stroke="#2853C9" stroke-width="3.125" stroke-linecap="round" stroke-linejoin="round"/>
<path d="M46.8417 28.0844H39.547C38.9714 28.0844 38.5049 27.6178 38.5049 27.0423V19.7476H45.1743" stroke="#2853C9" stroke-width="3.125" stroke-linecap="round" stroke-linejoin="round"/>
<path d="M39.6653 37.3457C40.5594 38.2398 40.827 39.5844 40.3432 40.7527C39.8593 41.9209 38.7194 42.6827 37.4549 42.6827C36.1905 42.6828 35.0505 41.9212 34.5665 40.753C34.0825 39.5848 34.3499 38.2401 35.244 37.3459L35.2442 37.3457C35.8305 36.7594 36.6257 36.4301 37.4548 36.4301C38.2839 36.4301 39.079 36.7594 39.6653 37.3457V37.3457" stroke="#2853C9" stroke-width="3.125" stroke-linecap="round" stroke-linejoin="round"/>
<path d="M16.739 37.3453C17.6332 38.2394 17.9007 39.584 17.4169 40.7523C16.9331 41.9205 15.7931 42.6823 14.5287 42.6823C13.2642 42.6824 12.1242 41.9208 11.6402 40.7526C11.1563 39.5844 11.4237 38.2397 12.3177 37.3455L12.3184 37.3449C12.9046 36.7587 13.6997 36.4294 14.5288 36.4294C15.3578 36.4295 16.1528 36.759 16.739 37.3453V37.3453" stroke="#2853C9" stroke-width="3.125" stroke-linecap="round" stroke-linejoin="round"/>
<path d="M11.4106 39.5478H7.24216C6.09109 39.5478 5.15796 38.6147 5.15796 37.4636V11.4111C5.15796 10.26 6.09109 9.3269 7.24216 9.3269H30.1684C31.3194 9.3269 32.2526 10.26 32.2526 11.4111V30.1689" stroke="#2853C9" stroke-width="3.125" stroke-linecap="round" stroke-linejoin="round"/>
<path d="M32.2526 30.1688H5.15796" stroke="#2853C9" stroke-width="3.125" stroke-linecap="round" stroke-linejoin="round"/>
</svg>
