<svg width="70" height="71" viewBox="0 0 70 71" fill="none" xmlns="http://www.w3.org/2000/svg">
<circle cx="35" cy="35.0684" r="35" fill="#2853C9"/>
<path d="M50 19.3346L49.2177 24.9576C47.653 24.826 46.3817 25.0891 45.4038 25.7468C44.4259 26.3715 43.7413 27.2923 43.3502 28.5089C42.9916 29.6927 42.9264 31.0738 43.1546 32.6522H50V46.0684H36.7003V32.6522C36.7003 27.917 37.7923 24.3328 39.9763 21.8995C42.1604 19.4333 45.5016 18.5783 50 19.3346ZM32.2997 19.3346L31.5173 24.9576C29.9527 24.826 28.6814 25.0891 27.7035 25.7468C26.7256 26.3715 26.041 27.2923 25.6498 28.5089C25.2913 29.6927 25.2261 31.0738 25.4543 32.6522H32.2997V46.0684H19V32.6522C19 27.917 20.092 24.3328 22.276 21.8995C24.46 19.4333 27.8013 18.5783 32.2997 19.3346Z" fill="white"/>
</svg>
