<svg width="26" height="25" viewBox="0 0 26 25" fill="none" xmlns="http://www.w3.org/2000/svg">
<path d="M12.0552 0.929791C12.3544 0.00816202 13.6582 0.00816441 13.9574 0.929794L16.2589 8.01902C16.3927 8.43116 16.7767 8.71024 17.21 8.71024H24.6595C25.628 8.71024 26.0309 9.94942 25.2476 10.519L19.2194 14.9025C18.8692 15.1572 18.7227 15.6083 18.8564 16.0201L21.1586 23.1117C21.4577 24.0332 20.4029 24.799 19.6193 24.2293L13.5944 19.8481C13.2438 19.5932 12.7688 19.5932 12.4182 19.8481L6.39322 24.2293C5.60968 24.799 4.55483 24.0332 4.85397 23.1117L7.15621 16.0201C7.2899 15.6083 7.14337 15.1572 6.79319 14.9025L0.764951 10.519C-0.0183632 9.94942 0.384546 8.71024 1.35306 8.71024H8.80256C9.23588 8.71024 9.61989 8.43116 9.75369 8.01901L12.0552 0.929791Z" fill="#2853C9"/>
</svg>
