<svg width="41" height="40" viewBox="0 0 41 40" fill="none" xmlns="http://www.w3.org/2000/svg">
<path fill-rule="evenodd" clip-rule="evenodd" d="M20.5 0C9.45431 0 0.5 8.95431 0.5 20C0.5 31.0457 9.45431 40 20.5 40C31.5457 40 40.5 31.0457 40.5 20C40.5 8.95431 31.5457 0 20.5 0ZM13.7308 19.5817C13.7308 16.0748 16.5771 13.2308 20.0897 13.2308C23.6024 13.2308 26.4487 16.0748 26.4487 19.5817C26.4487 21.3393 25.7346 22.9294 24.5787 24.08C23.4279 25.2255 21.8422 25.9326 20.0897 25.9326C16.5771 25.9326 13.7308 23.0885 13.7308 19.5817ZM20.0897 12C15.8987 12 12.5 15.3938 12.5 19.5817C12.5 23.7696 15.8987 27.1634 20.0897 27.1634C21.9594 27.1634 23.672 26.4874 24.9946 25.3677L27.4497 27.82C27.6902 28.0602 28.0798 28.06 28.32 27.8195C28.5602 27.579 28.56 27.1894 28.3195 26.9492L25.8667 24.4992C26.9966 23.1758 27.6795 21.458 27.6795 19.5817C27.6795 15.3938 24.2808 12 20.0897 12Z" fill="#2853C9"/>
</svg>
