<svg width="25" height="24" viewBox="0 0 25 24" fill="none" xmlns="http://www.w3.org/2000/svg">
<path fill-rule="evenodd" clip-rule="evenodd" d="M12.1154 5.65385C8.82229 5.65385 6.15385 8.32017 6.15385 11.6078C6.15385 14.8955 8.82229 17.5618 12.1154 17.5618C13.7583 17.5618 15.2449 16.8989 16.3238 15.825C17.4075 14.7463 18.0769 13.2556 18.0769 11.6078C18.0769 8.32017 15.4085 5.65385 12.1154 5.65385ZM5 11.6078C5 7.68166 8.18629 4.5 12.1154 4.5C16.0445 4.5 19.2308 7.68166 19.2308 11.6078C19.2308 13.3669 18.5905 14.9773 17.5312 16.218L19.8308 18.5149C20.0562 18.7401 20.0564 19.1054 19.8313 19.3308C19.6061 19.5562 19.2408 19.5564 19.0154 19.3313L16.7137 17.0322C15.4738 18.082 13.8682 18.7157 12.1154 18.7157C8.18629 18.7157 5 15.534 5 11.6078Z" fill="#121212"/>
</svg>
