<svg width="50" height="50" viewBox="0 0 50 50" fill="none" xmlns="http://www.w3.org/2000/svg">
<path fill-rule="evenodd" clip-rule="evenodd" d="M35.4167 43.75H14.5834C12.2813 43.75 10.4167 41.8855 10.4167 39.5834V18.75C10.4167 16.448 12.2813 14.5834 14.5834 14.5834H35.4167C37.7188 14.5834 39.5834 16.448 39.5834 18.75V39.5834C39.5834 41.8855 37.7188 43.75 35.4167 43.75Z" stroke="#2853C9" stroke-width="3.125" stroke-linecap="round" stroke-linejoin="round"/>
<path d="M20.8333 20.8333H29.1666" stroke="#2853C9" stroke-width="3.125" stroke-linecap="round" stroke-linejoin="round"/>
<path d="M16.6667 43.75V45.8333" stroke="#2853C9" stroke-width="3.125" stroke-linecap="round" stroke-linejoin="round"/>
<path d="M33.3334 43.75V45.8333" stroke="#2853C9" stroke-width="3.125" stroke-linecap="round" stroke-linejoin="round"/>
<path d="M33.3334 14.5833V8.33329C33.3334 6.03121 31.4688 4.16663 29.1667 4.16663H20.8334C18.5313 4.16663 16.6667 6.03121 16.6667 8.33329V14.5833" stroke="#2853C9" stroke-width="3.125" stroke-linecap="round" stroke-linejoin="round"/>
<path d="M24.9999 27.0834V37.5" stroke="#2853C9" stroke-width="3.125" stroke-linecap="round" stroke-linejoin="round"/>
<path d="M16.6667 27.0834V37.5" stroke="#2853C9" stroke-width="3.125" stroke-linecap="round" stroke-linejoin="round"/>
<path d="M33.3334 27.0834V37.5" stroke="#2853C9" stroke-width="3.125" stroke-linecap="round" stroke-linejoin="round"/>
</svg>
