<svg width="26" height="25" viewBox="0 0 26 25" fill="none" xmlns="http://www.w3.org/2000/svg">
<path d="M12.062 0.929791C12.3612 0.00816202 13.6651 0.00816441 13.9643 0.929794L16.2657 8.01902C16.3995 8.43116 16.7835 8.71024 17.2168 8.71024H24.6663C25.6349 8.71024 26.0378 9.94942 25.2545 10.519L19.2262 14.9025C18.876 15.1572 18.7295 15.6083 18.8632 16.0201L21.1654 23.1117C21.4646 24.0332 20.4097 24.799 19.6262 24.2293L13.6012 19.8481C13.2506 19.5932 12.7756 19.5932 12.425 19.8481L6.40006 24.2293C5.61651 24.799 4.56166 24.0332 4.86081 23.1117L7.16304 16.0201C7.29674 15.6083 7.15021 15.1572 6.80002 14.9025L0.771787 10.519C-0.0115273 9.94942 0.391382 8.71024 1.3599 8.71024H8.80939C9.24271 8.71024 9.62673 8.43116 9.76053 8.01901L12.062 0.929791Z" fill="#AEAEAE"/>
</svg>
