<svg width="18" height="17" viewBox="0 0 18 17" fill="none" xmlns="http://www.w3.org/2000/svg">
<path d="M8.16831 0.984092C8.46829 0.0641005 9.76979 0.0641003 10.0698 0.984092L11.3725 4.97918C11.5066 5.3907 11.8903 5.66917 12.3232 5.66917H16.5312C17.5008 5.66917 17.903 6.91059 17.1176 7.47918L13.7194 9.93945C13.3676 10.1941 13.2204 10.6466 13.3551 11.0595L14.6545 15.0447C14.9547 15.9654 13.9018 16.7326 13.1174 16.1647L9.70546 13.6945C9.35555 13.4412 8.88253 13.4412 8.53261 13.6945L5.12072 16.1647C4.33632 16.7326 3.28336 15.9654 3.58357 15.0447L4.88302 11.0595C5.01764 10.6466 4.87044 10.1941 4.51871 9.93945L1.12044 7.47917C0.335079 6.91059 0.737288 5.66917 1.70687 5.66917H5.91489C6.34773 5.66917 6.73144 5.3907 6.86562 4.97918L8.16831 0.984092Z" fill="#2853C9"/>
</svg>
